<mxfile host="app.diagrams.net" agent="Mozilla/5.0 (X11; Linux x86_64) AppleWebKit/537.36 (KHTML, like Gecko) Chrome/130.0.0.0 Safari/537.36" version="24.8.6">
  <diagram name="Page-1" id="JloVQCG3zRwv37BRFRI_">
    <mxGraphModel dx="3590" dy="1403" grid="1" gridSize="10" guides="1" tooltips="1" connect="1" arrows="1" fold="1" page="1" pageScale="1" pageWidth="850" pageHeight="1100" math="0" shadow="0">
      <root>
        <mxCell id="0" />
        <mxCell id="1" parent="0" />
        <mxCell id="Lz8n0oIxIYNL_WobhxWU-44" value="Fecha" style="ellipse;whiteSpace=wrap;html=1;align=center;fillColor=#dae8fc;strokeColor=#6c8ebf;" vertex="1" parent="1">
          <mxGeometry x="1171.54" y="1022" width="100" height="40" as="geometry" />
        </mxCell>
        <mxCell id="Lz8n0oIxIYNL_WobhxWU-47" value="ID Comentario" style="ellipse;whiteSpace=wrap;html=1;align=center;fontStyle=4;fillColor=#dae8fc;strokeColor=#6c8ebf;" vertex="1" parent="1">
          <mxGeometry x="1021.54" y="1022" width="100" height="40" as="geometry" />
        </mxCell>
        <mxCell id="Lz8n0oIxIYNL_WobhxWU-179" style="edgeStyle=none;rounded=0;orthogonalLoop=1;jettySize=auto;html=1;exitX=0;exitY=0;exitDx=0;exitDy=0;entryX=0.5;entryY=1;entryDx=0;entryDy=0;" edge="1" parent="1" source="Lz8n0oIxIYNL_WobhxWU-48" target="Lz8n0oIxIYNL_WobhxWU-178">
          <mxGeometry relative="1" as="geometry" />
        </mxCell>
        <mxCell id="Lz8n0oIxIYNL_WobhxWU-48" value="Comentarios" style="rounded=1;arcSize=10;whiteSpace=wrap;html=1;align=center;fillColor=#dae8fc;strokeColor=#6c8ebf;" vertex="1" parent="1">
          <mxGeometry x="956.54" y="940" width="100" height="40" as="geometry" />
        </mxCell>
        <mxCell id="Lz8n0oIxIYNL_WobhxWU-50" value="Contenido" style="ellipse;whiteSpace=wrap;html=1;align=center;fillColor=#dae8fc;strokeColor=#6c8ebf;" vertex="1" parent="1">
          <mxGeometry x="888.46" y="1022" width="100" height="40" as="geometry" />
        </mxCell>
        <mxCell id="Lz8n0oIxIYNL_WobhxWU-1" value="Equipo Computo" style="rounded=1;arcSize=10;whiteSpace=wrap;html=1;align=center;fillColor=#dae8fc;strokeColor=#6c8ebf;" vertex="1" parent="1">
          <mxGeometry x="170" y="210" width="130" height="50" as="geometry" />
        </mxCell>
        <mxCell id="Lz8n0oIxIYNL_WobhxWU-2" value="Modelo" style="ellipse;whiteSpace=wrap;html=1;align=center;fillColor=#dae8fc;strokeColor=#6c8ebf;" vertex="1" parent="1">
          <mxGeometry x="310" y="80" width="100" height="40" as="geometry" />
        </mxCell>
        <mxCell id="Lz8n0oIxIYNL_WobhxWU-3" value="ID EquipoComputo" style="ellipse;whiteSpace=wrap;html=1;align=center;fontStyle=4;fillColor=#dae8fc;strokeColor=#6c8ebf;" vertex="1" parent="1">
          <mxGeometry x="310" y="160" width="120" height="60" as="geometry" />
        </mxCell>
        <mxCell id="Lz8n0oIxIYNL_WobhxWU-4" value="Cantidad Memoria" style="ellipse;whiteSpace=wrap;html=1;align=center;fillColor=#dae8fc;strokeColor=#6c8ebf;" vertex="1" parent="1">
          <mxGeometry x="40" y="80" width="120" height="50" as="geometry" />
        </mxCell>
        <mxCell id="Lz8n0oIxIYNL_WobhxWU-5" value="Marca" style="ellipse;whiteSpace=wrap;html=1;align=center;fillColor=#dae8fc;strokeColor=#6c8ebf;" vertex="1" parent="1">
          <mxGeometry x="320" y="265" width="100" height="40" as="geometry" />
        </mxCell>
        <mxCell id="Lz8n0oIxIYNL_WobhxWU-6" value="No.Serial" style="ellipse;whiteSpace=wrap;html=1;align=center;fillColor=#dae8fc;strokeColor=#6c8ebf;" vertex="1" parent="1">
          <mxGeometry x="185" y="80" width="100" height="40" as="geometry" />
        </mxCell>
        <mxCell id="Lz8n0oIxIYNL_WobhxWU-7" value="Cantidad Almacenamiento" style="ellipse;whiteSpace=wrap;html=1;align=center;fillColor=#dae8fc;strokeColor=#6c8ebf;" vertex="1" parent="1">
          <mxGeometry x="25" y="180" width="120" height="60" as="geometry" />
        </mxCell>
        <mxCell id="Lz8n0oIxIYNL_WobhxWU-8" value="Modelo Procesador" style="ellipse;whiteSpace=wrap;html=1;align=center;fillColor=#dae8fc;strokeColor=#6c8ebf;" vertex="1" parent="1">
          <mxGeometry x="55" y="260" width="90" height="50" as="geometry" />
        </mxCell>
        <mxCell id="Lz8n0oIxIYNL_WobhxWU-16" value="" style="endArrow=none;html=1;rounded=0;entryX=0.051;entryY=1;entryDx=0;entryDy=0;exitX=1;exitY=0;exitDx=0;exitDy=0;entryPerimeter=0;" edge="1" parent="1" source="Lz8n0oIxIYNL_WobhxWU-8" target="Lz8n0oIxIYNL_WobhxWU-1">
          <mxGeometry relative="1" as="geometry">
            <mxPoint x="50" y="300" as="sourcePoint" />
            <mxPoint x="210" y="300" as="targetPoint" />
          </mxGeometry>
        </mxCell>
        <mxCell id="Lz8n0oIxIYNL_WobhxWU-17" value="" style="endArrow=none;html=1;rounded=0;entryX=0;entryY=0.5;entryDx=0;entryDy=0;exitX=1;exitY=0.5;exitDx=0;exitDy=0;" edge="1" parent="1" source="Lz8n0oIxIYNL_WobhxWU-7" target="Lz8n0oIxIYNL_WobhxWU-1">
          <mxGeometry relative="1" as="geometry">
            <mxPoint x="170" y="183.5" as="sourcePoint" />
            <mxPoint x="215" y="176.5" as="targetPoint" />
          </mxGeometry>
        </mxCell>
        <mxCell id="Lz8n0oIxIYNL_WobhxWU-20" value="" style="endArrow=none;html=1;rounded=0;entryX=0.331;entryY=-0.03;entryDx=0;entryDy=0;exitX=0.5;exitY=1;exitDx=0;exitDy=0;entryPerimeter=0;" edge="1" parent="1" source="Lz8n0oIxIYNL_WobhxWU-4" target="Lz8n0oIxIYNL_WobhxWU-1">
          <mxGeometry relative="1" as="geometry">
            <mxPoint x="145" y="127" as="sourcePoint" />
            <mxPoint x="190" y="120" as="targetPoint" />
            <Array as="points" />
          </mxGeometry>
        </mxCell>
        <mxCell id="Lz8n0oIxIYNL_WobhxWU-22" value="" style="endArrow=none;html=1;rounded=0;entryX=0.5;entryY=0;entryDx=0;entryDy=0;exitX=0.5;exitY=1;exitDx=0;exitDy=0;" edge="1" parent="1" source="Lz8n0oIxIYNL_WobhxWU-6" target="Lz8n0oIxIYNL_WobhxWU-1">
          <mxGeometry relative="1" as="geometry">
            <mxPoint x="110" y="140" as="sourcePoint" />
            <mxPoint x="223" y="219" as="targetPoint" />
            <Array as="points" />
          </mxGeometry>
        </mxCell>
        <mxCell id="Lz8n0oIxIYNL_WobhxWU-23" value="" style="endArrow=none;html=1;rounded=0;entryX=0.75;entryY=0;entryDx=0;entryDy=0;exitX=0.234;exitY=0.826;exitDx=0;exitDy=0;exitPerimeter=0;" edge="1" parent="1" source="Lz8n0oIxIYNL_WobhxWU-2" target="Lz8n0oIxIYNL_WobhxWU-1">
          <mxGeometry relative="1" as="geometry">
            <mxPoint x="120" y="150" as="sourcePoint" />
            <mxPoint x="233" y="229" as="targetPoint" />
            <Array as="points" />
          </mxGeometry>
        </mxCell>
        <mxCell id="Lz8n0oIxIYNL_WobhxWU-25" value="" style="endArrow=none;html=1;rounded=0;entryX=1;entryY=0.5;entryDx=0;entryDy=0;exitX=0.5;exitY=1;exitDx=0;exitDy=0;" edge="1" parent="1" source="Lz8n0oIxIYNL_WobhxWU-3" target="Lz8n0oIxIYNL_WobhxWU-1">
          <mxGeometry relative="1" as="geometry">
            <mxPoint x="343" y="123" as="sourcePoint" />
            <mxPoint x="278" y="220" as="targetPoint" />
            <Array as="points" />
          </mxGeometry>
        </mxCell>
        <mxCell id="Lz8n0oIxIYNL_WobhxWU-26" value="" style="endArrow=none;html=1;rounded=0;entryX=1;entryY=1;entryDx=0;entryDy=0;exitX=0;exitY=0;exitDx=0;exitDy=0;" edge="1" parent="1" source="Lz8n0oIxIYNL_WobhxWU-5" target="Lz8n0oIxIYNL_WobhxWU-1">
          <mxGeometry relative="1" as="geometry">
            <mxPoint x="353" y="133" as="sourcePoint" />
            <mxPoint x="288" y="230" as="targetPoint" />
            <Array as="points" />
          </mxGeometry>
        </mxCell>
        <mxCell id="Lz8n0oIxIYNL_WobhxWU-27" value="" style="html=1;overflow=block;blockSpacing=1;whiteSpace=wrap;ellipse;container=1;pointerEvents=0;collapsible=0;recursiveResize=0;fontSize=13;spacing=0;strokeColor=#unset;fillOpacity=0;rounded=1;absoluteArcSize=1;arcSize=9;fillColor=#000000;strokeWidth=NaN;lucidId=.MW6BvDOMoRh;" vertex="1" parent="1">
          <mxGeometry x="854.5" y="300" width="136" height="65" as="geometry" />
        </mxCell>
        <mxCell id="Lz8n0oIxIYNL_WobhxWU-84" value="EstÃ¡ en" style="shape=rhombus;perimeter=rhombusPerimeter;whiteSpace=wrap;html=1;align=center;fillColor=#dae8fc;strokeColor=#6c8ebf;" vertex="1" parent="Lz8n0oIxIYNL_WobhxWU-27">
          <mxGeometry x="25.5" y="5" width="120" height="60" as="geometry" />
        </mxCell>
        <mxCell id="Lz8n0oIxIYNL_WobhxWU-87" value="n" style="text;html=1;align=center;verticalAlign=middle;whiteSpace=wrap;rounded=0;" vertex="1" parent="Lz8n0oIxIYNL_WobhxWU-27">
          <mxGeometry x="-24.5" y="-6" width="60" height="30" as="geometry" />
        </mxCell>
        <mxCell id="Lz8n0oIxIYNL_WobhxWU-29" value="ID_Usuario" style="ellipse;whiteSpace=wrap;html=1;align=center;fontStyle=4;fillColor=#dae8fc;strokeColor=#6c8ebf;" vertex="1" parent="1">
          <mxGeometry x="790" y="196" width="100" height="40" as="geometry" />
        </mxCell>
        <mxCell id="Lz8n0oIxIYNL_WobhxWU-81" style="edgeStyle=none;rounded=0;orthogonalLoop=1;jettySize=auto;html=1;exitX=0;exitY=0.5;exitDx=0;exitDy=0;entryX=1;entryY=0;entryDx=0;entryDy=0;" edge="1" parent="1" source="Lz8n0oIxIYNL_WobhxWU-30" target="Lz8n0oIxIYNL_WobhxWU-79">
          <mxGeometry relative="1" as="geometry" />
        </mxCell>
        <mxCell id="Lz8n0oIxIYNL_WobhxWU-85" style="edgeStyle=none;rounded=0;orthogonalLoop=1;jettySize=auto;html=1;exitX=1;exitY=1;exitDx=0;exitDy=0;entryX=0;entryY=0.5;entryDx=0;entryDy=0;" edge="1" parent="1" source="Lz8n0oIxIYNL_WobhxWU-30" target="Lz8n0oIxIYNL_WobhxWU-84">
          <mxGeometry relative="1" as="geometry" />
        </mxCell>
        <mxCell id="Lz8n0oIxIYNL_WobhxWU-152" style="edgeStyle=none;rounded=0;orthogonalLoop=1;jettySize=auto;html=1;exitX=0.25;exitY=1;exitDx=0;exitDy=0;entryX=0.5;entryY=0;entryDx=0;entryDy=0;" edge="1" parent="1" source="Lz8n0oIxIYNL_WobhxWU-30" target="Lz8n0oIxIYNL_WobhxWU-151">
          <mxGeometry relative="1" as="geometry" />
        </mxCell>
        <mxCell id="Lz8n0oIxIYNL_WobhxWU-30" value="Usuario-Empleado" style="rounded=1;arcSize=10;whiteSpace=wrap;html=1;align=center;fillColor=#dae8fc;strokeColor=#6c8ebf;" vertex="1" parent="1">
          <mxGeometry x="680" y="254" width="100" height="40" as="geometry" />
        </mxCell>
        <mxCell id="Lz8n0oIxIYNL_WobhxWU-31" value="Rol Puesto" style="ellipse;whiteSpace=wrap;html=1;align=center;fillColor=#dae8fc;strokeColor=#6c8ebf;" vertex="1" parent="1">
          <mxGeometry x="560" y="196" width="100" height="40" as="geometry" />
        </mxCell>
        <mxCell id="Lz8n0oIxIYNL_WobhxWU-32" value="Nombre" style="ellipse;whiteSpace=wrap;html=1;align=center;fillColor=#dae8fc;strokeColor=#6c8ebf;" vertex="1" parent="1">
          <mxGeometry x="630" y="126" width="100" height="40" as="geometry" />
        </mxCell>
        <mxCell id="Lz8n0oIxIYNL_WobhxWU-28" value="Apellido" style="ellipse;whiteSpace=wrap;html=1;align=center;fillColor=#dae8fc;strokeColor=#6c8ebf;" vertex="1" parent="1">
          <mxGeometry x="750" y="126" width="100" height="40" as="geometry" />
        </mxCell>
        <mxCell id="Lz8n0oIxIYNL_WobhxWU-33" value="" style="endArrow=none;html=1;rounded=0;exitX=1;exitY=0.5;exitDx=0;exitDy=0;entryX=0;entryY=0;entryDx=0;entryDy=0;" edge="1" parent="1" source="Lz8n0oIxIYNL_WobhxWU-31" target="Lz8n0oIxIYNL_WobhxWU-30">
          <mxGeometry relative="1" as="geometry">
            <mxPoint x="610" y="256" as="sourcePoint" />
            <mxPoint x="770" y="256" as="targetPoint" />
          </mxGeometry>
        </mxCell>
        <mxCell id="Lz8n0oIxIYNL_WobhxWU-34" value="" style="endArrow=none;html=1;rounded=0;exitX=0.5;exitY=1;exitDx=0;exitDy=0;entryX=0.25;entryY=0;entryDx=0;entryDy=0;" edge="1" parent="1" source="Lz8n0oIxIYNL_WobhxWU-32" target="Lz8n0oIxIYNL_WobhxWU-30">
          <mxGeometry relative="1" as="geometry">
            <mxPoint x="680" y="166" as="sourcePoint" />
            <mxPoint x="700" y="204" as="targetPoint" />
          </mxGeometry>
        </mxCell>
        <mxCell id="Lz8n0oIxIYNL_WobhxWU-35" value="" style="endArrow=none;html=1;rounded=0;exitX=0.5;exitY=1;exitDx=0;exitDy=0;entryX=0.75;entryY=0;entryDx=0;entryDy=0;" edge="1" parent="1" source="Lz8n0oIxIYNL_WobhxWU-28" target="Lz8n0oIxIYNL_WobhxWU-30">
          <mxGeometry relative="1" as="geometry">
            <mxPoint x="680" y="236" as="sourcePoint" />
            <mxPoint x="700" y="274" as="targetPoint" />
          </mxGeometry>
        </mxCell>
        <mxCell id="Lz8n0oIxIYNL_WobhxWU-36" value="" style="endArrow=none;html=1;rounded=0;exitX=0.5;exitY=1;exitDx=0;exitDy=0;entryX=1;entryY=0.25;entryDx=0;entryDy=0;" edge="1" parent="1" source="Lz8n0oIxIYNL_WobhxWU-29" target="Lz8n0oIxIYNL_WobhxWU-30">
          <mxGeometry relative="1" as="geometry">
            <mxPoint x="690" y="246" as="sourcePoint" />
            <mxPoint x="710" y="284" as="targetPoint" />
          </mxGeometry>
        </mxCell>
        <mxCell id="Lz8n0oIxIYNL_WobhxWU-38" value="ID_Area" style="ellipse;whiteSpace=wrap;html=1;align=center;fontStyle=4;fillColor=#dae8fc;strokeColor=#6c8ebf;" vertex="1" parent="1">
          <mxGeometry x="1190" y="198" width="100" height="40" as="geometry" />
        </mxCell>
        <mxCell id="Lz8n0oIxIYNL_WobhxWU-39" value="Area" style="rounded=1;arcSize=10;whiteSpace=wrap;html=1;align=center;fillColor=#dae8fc;strokeColor=#6c8ebf;" vertex="1" parent="1">
          <mxGeometry x="1106.92" y="260" width="100" height="40" as="geometry" />
        </mxCell>
        <mxCell id="Lz8n0oIxIYNL_WobhxWU-40" value="Nombre" style="ellipse;whiteSpace=wrap;html=1;align=center;fillColor=#dae8fc;strokeColor=#6c8ebf;" vertex="1" parent="1">
          <mxGeometry x="1030" y="198" width="100" height="40" as="geometry" />
        </mxCell>
        <mxCell id="Lz8n0oIxIYNL_WobhxWU-41" value="" style="endArrow=none;html=1;rounded=0;exitX=1;exitY=0.5;exitDx=0;exitDy=0;entryX=0.5;entryY=0;entryDx=0;entryDy=0;" edge="1" parent="1" source="Lz8n0oIxIYNL_WobhxWU-40" target="Lz8n0oIxIYNL_WobhxWU-39">
          <mxGeometry relative="1" as="geometry">
            <mxPoint x="1100" y="178" as="sourcePoint" />
            <mxPoint x="1260" y="178" as="targetPoint" />
          </mxGeometry>
        </mxCell>
        <mxCell id="Lz8n0oIxIYNL_WobhxWU-42" value="" style="endArrow=none;html=1;rounded=0;entryX=0.5;entryY=0;entryDx=0;entryDy=0;exitX=0;exitY=0.5;exitDx=0;exitDy=0;" edge="1" parent="1" source="Lz8n0oIxIYNL_WobhxWU-38" target="Lz8n0oIxIYNL_WobhxWU-39">
          <mxGeometry relative="1" as="geometry">
            <mxPoint x="1180" y="228" as="sourcePoint" />
            <mxPoint x="1167" y="270" as="targetPoint" />
          </mxGeometry>
        </mxCell>
        <mxCell id="Lz8n0oIxIYNL_WobhxWU-51" value="" style="endArrow=none;html=1;rounded=0;exitX=1;exitY=1;exitDx=0;exitDy=0;entryX=0.5;entryY=0;entryDx=0;entryDy=0;" edge="1" parent="1" source="Lz8n0oIxIYNL_WobhxWU-48" target="Lz8n0oIxIYNL_WobhxWU-44">
          <mxGeometry relative="1" as="geometry">
            <mxPoint x="1061.54" y="962" as="sourcePoint" />
            <mxPoint x="1211.54" y="1012" as="targetPoint" />
          </mxGeometry>
        </mxCell>
        <mxCell id="Lz8n0oIxIYNL_WobhxWU-52" value="" style="endArrow=none;html=1;rounded=0;exitX=0.75;exitY=1;exitDx=0;exitDy=0;entryX=0.453;entryY=0.071;entryDx=0;entryDy=0;entryPerimeter=0;" edge="1" parent="1" source="Lz8n0oIxIYNL_WobhxWU-48" target="Lz8n0oIxIYNL_WobhxWU-47">
          <mxGeometry relative="1" as="geometry">
            <mxPoint x="1066.54" y="990" as="sourcePoint" />
            <mxPoint x="1231.54" y="1032" as="targetPoint" />
          </mxGeometry>
        </mxCell>
        <mxCell id="Lz8n0oIxIYNL_WobhxWU-53" value="" style="endArrow=none;html=1;rounded=0;exitX=0;exitY=1;exitDx=0;exitDy=0;entryX=0.5;entryY=0;entryDx=0;entryDy=0;" edge="1" parent="1" source="Lz8n0oIxIYNL_WobhxWU-48" target="Lz8n0oIxIYNL_WobhxWU-50">
          <mxGeometry relative="1" as="geometry">
            <mxPoint x="1041.54" y="990" as="sourcePoint" />
            <mxPoint x="1076.54" y="1035" as="targetPoint" />
          </mxGeometry>
        </mxCell>
        <mxCell id="Lz8n0oIxIYNL_WobhxWU-54" value="" style="html=1;overflow=block;blockSpacing=1;whiteSpace=wrap;ellipse;container=1;pointerEvents=0;collapsible=0;recursiveResize=0;fontSize=13;spacing=0;strokeColor=#unset;fillOpacity=0;rounded=1;absoluteArcSize=1;arcSize=9;fillColor=#000000;strokeWidth=NaN;lucidId=.MW6BvDOMoRh;" vertex="1" parent="1">
          <mxGeometry x="728" y="1138" width="136" height="60" as="geometry" />
        </mxCell>
        <mxCell id="Lz8n0oIxIYNL_WobhxWU-56" value="ID TÃ©cnico" style="ellipse;whiteSpace=wrap;html=1;align=center;fontStyle=4;fillColor=#dae8fc;strokeColor=#6c8ebf;" vertex="1" parent="1">
          <mxGeometry x="888.4599999999999" y="560" width="100" height="40" as="geometry" />
        </mxCell>
        <mxCell id="Lz8n0oIxIYNL_WobhxWU-144" style="edgeStyle=none;rounded=0;orthogonalLoop=1;jettySize=auto;html=1;exitX=1;exitY=0;exitDx=0;exitDy=0;" edge="1" parent="1" source="Lz8n0oIxIYNL_WobhxWU-57" target="Lz8n0oIxIYNL_WobhxWU-140">
          <mxGeometry relative="1" as="geometry" />
        </mxCell>
        <mxCell id="Lz8n0oIxIYNL_WobhxWU-57" value="TÃ©cnico" style="rounded=1;arcSize=10;whiteSpace=wrap;html=1;align=center;fillColor=#dae8fc;strokeColor=#6c8ebf;" vertex="1" parent="1">
          <mxGeometry x="689.9999999999999" y="550" width="100" height="40" as="geometry" />
        </mxCell>
        <mxCell id="Lz8n0oIxIYNL_WobhxWU-58" value="Nivel" style="ellipse;whiteSpace=wrap;html=1;align=center;fillColor=#dae8fc;strokeColor=#6c8ebf;" vertex="1" parent="1">
          <mxGeometry x="878.4599999999999" y="635" width="100" height="40" as="geometry" />
        </mxCell>
        <mxCell id="Lz8n0oIxIYNL_WobhxWU-59" value="Nombre" style="ellipse;whiteSpace=wrap;html=1;align=center;fillColor=#dae8fc;strokeColor=#6c8ebf;" vertex="1" parent="1">
          <mxGeometry x="429.9999999999999" y="675" width="100" height="40" as="geometry" />
        </mxCell>
        <mxCell id="Lz8n0oIxIYNL_WobhxWU-55" value="Apellidos" style="ellipse;whiteSpace=wrap;html=1;align=center;fillColor=#dae8fc;strokeColor=#6c8ebf;" vertex="1" parent="1">
          <mxGeometry x="559.9999999999999" y="510" width="100" height="40" as="geometry" />
        </mxCell>
        <mxCell id="Lz8n0oIxIYNL_WobhxWU-60" value="" style="endArrow=none;html=1;rounded=0;exitX=1;exitY=0.5;exitDx=0;exitDy=0;entryX=0;entryY=0.75;entryDx=0;entryDy=0;" edge="1" parent="1" source="Lz8n0oIxIYNL_WobhxWU-55" target="Lz8n0oIxIYNL_WobhxWU-57">
          <mxGeometry relative="1" as="geometry">
            <mxPoint x="609.9999999999999" y="494" as="sourcePoint" />
            <mxPoint x="769.9999999999999" y="494" as="targetPoint" />
          </mxGeometry>
        </mxCell>
        <mxCell id="Lz8n0oIxIYNL_WobhxWU-61" value="" style="endArrow=none;html=1;rounded=0;exitX=1;exitY=0.5;exitDx=0;exitDy=0;entryX=0.25;entryY=1;entryDx=0;entryDy=0;" edge="1" parent="1" source="Lz8n0oIxIYNL_WobhxWU-59" target="Lz8n0oIxIYNL_WobhxWU-57">
          <mxGeometry relative="1" as="geometry">
            <mxPoint x="639.9999999999999" y="580" as="sourcePoint" />
            <mxPoint x="699.9999999999999" y="590" as="targetPoint" />
          </mxGeometry>
        </mxCell>
        <mxCell id="Lz8n0oIxIYNL_WobhxWU-62" value="" style="endArrow=none;html=1;rounded=0;exitX=0.5;exitY=0;exitDx=0;exitDy=0;entryX=0.5;entryY=1;entryDx=0;entryDy=0;" edge="1" parent="1" source="Lz8n0oIxIYNL_WobhxWU-58" target="Lz8n0oIxIYNL_WobhxWU-57">
          <mxGeometry relative="1" as="geometry">
            <mxPoint x="649.9999999999999" y="590" as="sourcePoint" />
            <mxPoint x="709.9999999999999" y="600" as="targetPoint" />
          </mxGeometry>
        </mxCell>
        <mxCell id="Lz8n0oIxIYNL_WobhxWU-63" value="" style="endArrow=none;html=1;rounded=0;exitX=1;exitY=1;exitDx=0;exitDy=0;entryX=0.5;entryY=0;entryDx=0;entryDy=0;" edge="1" parent="1" source="Lz8n0oIxIYNL_WobhxWU-57" target="Lz8n0oIxIYNL_WobhxWU-56">
          <mxGeometry relative="1" as="geometry">
            <mxPoint x="659.9999999999999" y="600" as="sourcePoint" />
            <mxPoint x="719.9999999999999" y="610" as="targetPoint" />
          </mxGeometry>
        </mxCell>
        <mxCell id="Lz8n0oIxIYNL_WobhxWU-72" value="ID_Ticket" style="ellipse;whiteSpace=wrap;html=1;align=center;fontStyle=4;fillColor=#dae8fc;strokeColor=#6c8ebf;" vertex="1" parent="1">
          <mxGeometry x="510" y="1070" width="100" height="40" as="geometry" />
        </mxCell>
        <mxCell id="Lz8n0oIxIYNL_WobhxWU-102" style="edgeStyle=none;rounded=0;orthogonalLoop=1;jettySize=auto;html=1;exitX=1;exitY=0.25;exitDx=0;exitDy=0;entryX=0;entryY=0.5;entryDx=0;entryDy=0;" edge="1" parent="1" source="Lz8n0oIxIYNL_WobhxWU-73" target="Lz8n0oIxIYNL_WobhxWU-100">
          <mxGeometry relative="1" as="geometry" />
        </mxCell>
        <mxCell id="Lz8n0oIxIYNL_WobhxWU-135" style="edgeStyle=none;rounded=0;orthogonalLoop=1;jettySize=auto;html=1;exitX=0.5;exitY=0;exitDx=0;exitDy=0;entryX=0.5;entryY=1;entryDx=0;entryDy=0;" edge="1" parent="1" source="Lz8n0oIxIYNL_WobhxWU-73" target="Lz8n0oIxIYNL_WobhxWU-133">
          <mxGeometry relative="1" as="geometry" />
        </mxCell>
        <mxCell id="Lz8n0oIxIYNL_WobhxWU-168" style="edgeStyle=none;rounded=0;orthogonalLoop=1;jettySize=auto;html=1;exitX=0.75;exitY=0;exitDx=0;exitDy=0;entryX=0;entryY=1;entryDx=0;entryDy=0;" edge="1" parent="1" source="Lz8n0oIxIYNL_WobhxWU-73" target="Lz8n0oIxIYNL_WobhxWU-166">
          <mxGeometry relative="1" as="geometry" />
        </mxCell>
        <mxCell id="Lz8n0oIxIYNL_WobhxWU-173" style="edgeStyle=none;rounded=0;orthogonalLoop=1;jettySize=auto;html=1;exitX=0;exitY=0;exitDx=0;exitDy=0;entryX=0.5;entryY=1;entryDx=0;entryDy=0;" edge="1" parent="1" source="Lz8n0oIxIYNL_WobhxWU-73" target="Lz8n0oIxIYNL_WobhxWU-171">
          <mxGeometry relative="1" as="geometry" />
        </mxCell>
        <mxCell id="Lz8n0oIxIYNL_WobhxWU-73" value="Ticket" style="rounded=1;arcSize=10;whiteSpace=wrap;html=1;align=center;fillColor=#dae8fc;strokeColor=#6c8ebf;" vertex="1" parent="1">
          <mxGeometry x="269" y="1018" width="100" height="40" as="geometry" />
        </mxCell>
        <mxCell id="Lz8n0oIxIYNL_WobhxWU-74" value="Status" style="ellipse;whiteSpace=wrap;html=1;align=center;fillColor=#dae8fc;strokeColor=#6c8ebf;" vertex="1" parent="1">
          <mxGeometry x="-40" y="900" width="100" height="40" as="geometry" />
        </mxCell>
        <mxCell id="Lz8n0oIxIYNL_WobhxWU-75" value="TÃ­tulo" style="ellipse;whiteSpace=wrap;html=1;align=center;fillColor=#dae8fc;strokeColor=#6c8ebf;" vertex="1" parent="1">
          <mxGeometry x="145" y="760" width="100" height="40" as="geometry" />
        </mxCell>
        <mxCell id="Lz8n0oIxIYNL_WobhxWU-76" value="Prioridad" style="ellipse;whiteSpace=wrap;html=1;align=center;fillColor=#dae8fc;strokeColor=#6c8ebf;" vertex="1" parent="1">
          <mxGeometry x="-40" y="1000" width="100" height="40" as="geometry" />
        </mxCell>
        <mxCell id="Lz8n0oIxIYNL_WobhxWU-77" value="Fecha CreaciÃ³n" style="ellipse;whiteSpace=wrap;html=1;align=center;fillColor=#dae8fc;strokeColor=#6c8ebf;" vertex="1" parent="1">
          <mxGeometry x="35" y="1060" width="100" height="40" as="geometry" />
        </mxCell>
        <mxCell id="Lz8n0oIxIYNL_WobhxWU-78" value="Fecha Cierre" style="ellipse;whiteSpace=wrap;html=1;align=center;fillColor=#dae8fc;strokeColor=#6c8ebf;" vertex="1" parent="1">
          <mxGeometry x="375.0000000000001" y="1100" width="100" height="40" as="geometry" />
        </mxCell>
        <mxCell id="Lz8n0oIxIYNL_WobhxWU-80" style="edgeStyle=none;rounded=0;orthogonalLoop=1;jettySize=auto;html=1;exitX=0.5;exitY=0;exitDx=0;exitDy=0;" edge="1" parent="1" source="Lz8n0oIxIYNL_WobhxWU-79" target="Lz8n0oIxIYNL_WobhxWU-1">
          <mxGeometry relative="1" as="geometry" />
        </mxCell>
        <mxCell id="Lz8n0oIxIYNL_WobhxWU-79" value="Tiene" style="shape=rhombus;perimeter=rhombusPerimeter;whiteSpace=wrap;html=1;align=center;fillColor=#dae8fc;strokeColor=#6c8ebf;" vertex="1" parent="1">
          <mxGeometry x="175" y="390" width="120" height="60" as="geometry" />
        </mxCell>
        <mxCell id="Lz8n0oIxIYNL_WobhxWU-82" value="n" style="text;html=1;align=center;verticalAlign=middle;whiteSpace=wrap;rounded=0;" vertex="1" parent="1">
          <mxGeometry x="225" y="265" width="60" height="30" as="geometry" />
        </mxCell>
        <mxCell id="Lz8n0oIxIYNL_WobhxWU-83" value="1" style="text;html=1;align=center;verticalAlign=middle;whiteSpace=wrap;rounded=0;" vertex="1" parent="1">
          <mxGeometry x="550" y="270" width="60" height="35" as="geometry" />
        </mxCell>
        <mxCell id="Lz8n0oIxIYNL_WobhxWU-86" style="edgeStyle=none;rounded=0;orthogonalLoop=1;jettySize=auto;html=1;exitX=1;exitY=0.5;exitDx=0;exitDy=0;entryX=0;entryY=0.5;entryDx=0;entryDy=0;" edge="1" parent="1" source="Lz8n0oIxIYNL_WobhxWU-84" target="Lz8n0oIxIYNL_WobhxWU-39">
          <mxGeometry relative="1" as="geometry" />
        </mxCell>
        <mxCell id="Lz8n0oIxIYNL_WobhxWU-88" value="1" style="text;html=1;align=center;verticalAlign=middle;whiteSpace=wrap;rounded=0;" vertex="1" parent="1">
          <mxGeometry x="1000" y="294" width="60" height="30" as="geometry" />
        </mxCell>
        <mxCell id="Lz8n0oIxIYNL_WobhxWU-92" value="" style="endArrow=none;html=1;rounded=0;exitX=1;exitY=0.5;exitDx=0;exitDy=0;entryX=0;entryY=0.75;entryDx=0;entryDy=0;" edge="1" parent="1" source="Lz8n0oIxIYNL_WobhxWU-77" target="Lz8n0oIxIYNL_WobhxWU-73">
          <mxGeometry relative="1" as="geometry">
            <mxPoint x="390" y="760" as="sourcePoint" />
            <mxPoint x="550" y="760" as="targetPoint" />
          </mxGeometry>
        </mxCell>
        <mxCell id="Lz8n0oIxIYNL_WobhxWU-93" value="" style="endArrow=none;html=1;rounded=0;exitX=1;exitY=0.5;exitDx=0;exitDy=0;entryX=0;entryY=0.5;entryDx=0;entryDy=0;" edge="1" parent="1" source="Lz8n0oIxIYNL_WobhxWU-76" target="Lz8n0oIxIYNL_WobhxWU-73">
          <mxGeometry relative="1" as="geometry">
            <mxPoint x="189" y="1022" as="sourcePoint" />
            <mxPoint x="279" y="1058" as="targetPoint" />
          </mxGeometry>
        </mxCell>
        <mxCell id="Lz8n0oIxIYNL_WobhxWU-94" value="" style="endArrow=none;html=1;rounded=0;exitX=1;exitY=1;exitDx=0;exitDy=0;entryX=0;entryY=0.25;entryDx=0;entryDy=0;" edge="1" parent="1" source="Lz8n0oIxIYNL_WobhxWU-74" target="Lz8n0oIxIYNL_WobhxWU-73">
          <mxGeometry relative="1" as="geometry">
            <mxPoint x="199" y="1032" as="sourcePoint" />
            <mxPoint x="289" y="1068" as="targetPoint" />
          </mxGeometry>
        </mxCell>
        <mxCell id="Lz8n0oIxIYNL_WobhxWU-95" value="" style="endArrow=none;html=1;rounded=0;exitX=0.396;exitY=1.105;exitDx=0;exitDy=0;exitPerimeter=0;" edge="1" parent="1" source="Lz8n0oIxIYNL_WobhxWU-75">
          <mxGeometry relative="1" as="geometry">
            <mxPoint x="209" y="1042" as="sourcePoint" />
            <mxPoint x="294" y="1020" as="targetPoint" />
          </mxGeometry>
        </mxCell>
        <mxCell id="Lz8n0oIxIYNL_WobhxWU-96" value="" style="endArrow=none;html=1;rounded=0;exitX=1;exitY=0.5;exitDx=0;exitDy=0;" edge="1" parent="1" source="Lz8n0oIxIYNL_WobhxWU-157">
          <mxGeometry relative="1" as="geometry">
            <mxPoint x="450" y="900" as="sourcePoint" />
            <mxPoint x="280" y="1060" as="targetPoint" />
          </mxGeometry>
        </mxCell>
        <mxCell id="Lz8n0oIxIYNL_WobhxWU-97" value="" style="endArrow=none;html=1;rounded=0;exitX=0;exitY=0.5;exitDx=0;exitDy=0;" edge="1" parent="1" source="Lz8n0oIxIYNL_WobhxWU-72" target="Lz8n0oIxIYNL_WobhxWU-73">
          <mxGeometry relative="1" as="geometry">
            <mxPoint x="229" y="1062" as="sourcePoint" />
            <mxPoint x="319" y="1098" as="targetPoint" />
          </mxGeometry>
        </mxCell>
        <mxCell id="Lz8n0oIxIYNL_WobhxWU-98" value="" style="endArrow=none;html=1;rounded=0;exitX=0;exitY=0.5;exitDx=0;exitDy=0;entryX=1;entryY=0.5;entryDx=0;entryDy=0;" edge="1" parent="1" source="Lz8n0oIxIYNL_WobhxWU-78" target="Lz8n0oIxIYNL_WobhxWU-73">
          <mxGeometry relative="1" as="geometry">
            <mxPoint x="239" y="1072" as="sourcePoint" />
            <mxPoint x="329" y="1108" as="targetPoint" />
          </mxGeometry>
        </mxCell>
        <mxCell id="Lz8n0oIxIYNL_WobhxWU-101" style="edgeStyle=none;rounded=0;orthogonalLoop=1;jettySize=auto;html=1;exitX=1;exitY=0.5;exitDx=0;exitDy=0;" edge="1" parent="1" source="Lz8n0oIxIYNL_WobhxWU-100" target="Lz8n0oIxIYNL_WobhxWU-48">
          <mxGeometry relative="1" as="geometry" />
        </mxCell>
        <mxCell id="Lz8n0oIxIYNL_WobhxWU-100" value="Cuenta Con" style="shape=rhombus;perimeter=rhombusPerimeter;whiteSpace=wrap;html=1;align=center;fillColor=#dae8fc;strokeColor=#6c8ebf;" vertex="1" parent="1">
          <mxGeometry x="680" y="953" width="120" height="60" as="geometry" />
        </mxCell>
        <mxCell id="Lz8n0oIxIYNL_WobhxWU-103" value="1" style="text;html=1;align=center;verticalAlign=middle;whiteSpace=wrap;rounded=0;" vertex="1" parent="1">
          <mxGeometry x="610" y="992" width="60" height="30" as="geometry" />
        </mxCell>
        <mxCell id="Lz8n0oIxIYNL_WobhxWU-104" value="n" style="text;html=1;align=center;verticalAlign=middle;whiteSpace=wrap;rounded=0;" vertex="1" parent="1">
          <mxGeometry x="800" y="953" width="60" height="30" as="geometry" />
        </mxCell>
        <mxCell id="Lz8n0oIxIYNL_WobhxWU-121" value="ID Asignacion" style="ellipse;whiteSpace=wrap;html=1;align=center;fontStyle=4;fillColor=#dae8fc;strokeColor=#6c8ebf;" vertex="1" parent="1">
          <mxGeometry x="60" y="650" width="100" height="40" as="geometry" />
        </mxCell>
        <mxCell id="Lz8n0oIxIYNL_WobhxWU-125" value="Fecha&amp;nbsp;&lt;div&gt;Asignacion&lt;/div&gt;" style="ellipse;whiteSpace=wrap;html=1;align=center;fillColor=#dae8fc;strokeColor=#6c8ebf;" vertex="1" parent="1">
          <mxGeometry x="70" y="570" width="100" height="40" as="geometry" />
        </mxCell>
        <mxCell id="Lz8n0oIxIYNL_WobhxWU-129" value="" style="endArrow=none;html=1;rounded=0;entryX=1;entryY=0.5;entryDx=0;entryDy=0;exitX=0.363;exitY=0.955;exitDx=0;exitDy=0;exitPerimeter=0;" edge="1" parent="1" source="Lz8n0oIxIYNL_WobhxWU-133" target="Lz8n0oIxIYNL_WobhxWU-121">
          <mxGeometry relative="1" as="geometry">
            <mxPoint x="-17" y="616" as="sourcePoint" />
            <mxPoint x="13" y="636" as="targetPoint" />
          </mxGeometry>
        </mxCell>
        <mxCell id="Lz8n0oIxIYNL_WobhxWU-132" value="" style="endArrow=none;html=1;rounded=0;exitX=1;exitY=0.5;exitDx=0;exitDy=0;entryX=0;entryY=0;entryDx=0;entryDy=0;" edge="1" parent="1" source="Lz8n0oIxIYNL_WobhxWU-125" target="Lz8n0oIxIYNL_WobhxWU-133">
          <mxGeometry relative="1" as="geometry">
            <mxPoint x="-40" y="550" as="sourcePoint" />
            <mxPoint x="-17" y="606" as="targetPoint" />
          </mxGeometry>
        </mxCell>
        <mxCell id="Lz8n0oIxIYNL_WobhxWU-138" style="edgeStyle=none;rounded=0;orthogonalLoop=1;jettySize=auto;html=1;exitX=1;exitY=0;exitDx=0;exitDy=0;entryX=0;entryY=1;entryDx=0;entryDy=0;" edge="1" parent="1" source="Lz8n0oIxIYNL_WobhxWU-133" target="Lz8n0oIxIYNL_WobhxWU-57">
          <mxGeometry relative="1" as="geometry" />
        </mxCell>
        <mxCell id="Lz8n0oIxIYNL_WobhxWU-133" value="Asignacion" style="shape=ext;margin=3;double=1;whiteSpace=wrap;html=1;align=center;fillColor=#dae8fc;strokeColor=#6c8ebf;" vertex="1" parent="1">
          <mxGeometry x="220" y="675" width="100" height="40" as="geometry" />
        </mxCell>
        <mxCell id="Lz8n0oIxIYNL_WobhxWU-146" style="edgeStyle=none;rounded=0;orthogonalLoop=1;jettySize=auto;html=1;exitX=1;exitY=0.5;exitDx=0;exitDy=0;" edge="1" parent="1" source="Lz8n0oIxIYNL_WobhxWU-140" target="Lz8n0oIxIYNL_WobhxWU-39">
          <mxGeometry relative="1" as="geometry" />
        </mxCell>
        <mxCell id="Lz8n0oIxIYNL_WobhxWU-140" value="Resuelve&lt;div&gt;En&lt;/div&gt;" style="shape=rhombus;perimeter=rhombusPerimeter;whiteSpace=wrap;html=1;align=center;fillColor=#dae8fc;strokeColor=#6c8ebf;" vertex="1" parent="1">
          <mxGeometry x="878.46" y="440" width="131.54" height="80" as="geometry" />
        </mxCell>
        <mxCell id="Lz8n0oIxIYNL_WobhxWU-142" value="n" style="text;html=1;align=center;verticalAlign=middle;whiteSpace=wrap;rounded=0;" vertex="1" parent="1">
          <mxGeometry x="375" y="620" width="60" height="30" as="geometry" />
        </mxCell>
        <mxCell id="Lz8n0oIxIYNL_WobhxWU-143" value="n" style="text;html=1;align=center;verticalAlign=middle;whiteSpace=wrap;rounded=0;" vertex="1" parent="1">
          <mxGeometry x="269" y="730" width="60" height="30" as="geometry" />
        </mxCell>
        <mxCell id="Lz8n0oIxIYNL_WobhxWU-145" value="n" style="text;html=1;align=center;verticalAlign=middle;whiteSpace=wrap;rounded=0;" vertex="1" parent="1">
          <mxGeometry x="818.46" y="490" width="60" height="30" as="geometry" />
        </mxCell>
        <mxCell id="Lz8n0oIxIYNL_WobhxWU-147" value="1" style="text;html=1;align=center;verticalAlign=middle;whiteSpace=wrap;rounded=0;" vertex="1" parent="1">
          <mxGeometry x="1111.54" y="317.5" width="60" height="30" as="geometry" />
        </mxCell>
        <mxCell id="Lz8n0oIxIYNL_WobhxWU-153" style="edgeStyle=none;rounded=0;orthogonalLoop=1;jettySize=auto;html=1;exitX=0.5;exitY=1;exitDx=0;exitDy=0;entryX=0.5;entryY=0;entryDx=0;entryDy=0;" edge="1" parent="1" source="Lz8n0oIxIYNL_WobhxWU-151" target="Lz8n0oIxIYNL_WobhxWU-73">
          <mxGeometry relative="1" as="geometry" />
        </mxCell>
        <mxCell id="Lz8n0oIxIYNL_WobhxWU-151" value="Creado Por" style="shape=rhombus;perimeter=rhombusPerimeter;whiteSpace=wrap;html=1;align=center;fillColor=#dae8fc;strokeColor=#6c8ebf;" vertex="1" parent="1">
          <mxGeometry x="305" y="500" width="120" height="60" as="geometry" />
        </mxCell>
        <mxCell id="Lz8n0oIxIYNL_WobhxWU-154" value="1" style="text;html=1;align=center;verticalAlign=middle;whiteSpace=wrap;rounded=0;" vertex="1" parent="1">
          <mxGeometry x="660" y="310" width="60" height="30" as="geometry" />
        </mxCell>
        <mxCell id="Lz8n0oIxIYNL_WobhxWU-156" value="1" style="text;html=1;align=center;verticalAlign=middle;whiteSpace=wrap;rounded=0;" vertex="1" parent="1">
          <mxGeometry x="350" y="560" width="60" height="30" as="geometry" />
        </mxCell>
        <mxCell id="Lz8n0oIxIYNL_WobhxWU-157" value="DescripciÃ³n" style="ellipse;whiteSpace=wrap;html=1;align=center;fillColor=#dae8fc;strokeColor=#6c8ebf;" vertex="1" parent="1">
          <mxGeometry x="140" y="1100" width="100" height="40" as="geometry" />
        </mxCell>
        <mxCell id="Lz8n0oIxIYNL_WobhxWU-161" value="ID_CategorÃ­a" style="ellipse;whiteSpace=wrap;html=1;align=center;fontStyle=4;fillColor=#dae8fc;strokeColor=#6c8ebf;" vertex="1" parent="1">
          <mxGeometry x="1095.54" y="740" width="100" height="40" as="geometry" />
        </mxCell>
        <mxCell id="Lz8n0oIxIYNL_WobhxWU-162" value="Categoria&lt;div&gt;Ticket&lt;/div&gt;" style="rounded=1;arcSize=10;whiteSpace=wrap;html=1;align=center;fillColor=#dae8fc;strokeColor=#6c8ebf;" vertex="1" parent="1">
          <mxGeometry x="956.54" y="820" width="100" height="40" as="geometry" />
        </mxCell>
        <mxCell id="Lz8n0oIxIYNL_WobhxWU-163" value="Nombre" style="ellipse;whiteSpace=wrap;html=1;align=center;fillColor=#dae8fc;strokeColor=#6c8ebf;" vertex="1" parent="1">
          <mxGeometry x="1122.54" y="815" width="100" height="40" as="geometry" />
        </mxCell>
        <mxCell id="Lz8n0oIxIYNL_WobhxWU-164" value="" style="endArrow=none;html=1;rounded=0;exitX=0;exitY=0.5;exitDx=0;exitDy=0;entryX=1;entryY=0.25;entryDx=0;entryDy=0;" edge="1" parent="1" source="Lz8n0oIxIYNL_WobhxWU-161" target="Lz8n0oIxIYNL_WobhxWU-162">
          <mxGeometry relative="1" as="geometry">
            <mxPoint x="1313.54" y="970" as="sourcePoint" />
            <mxPoint x="1294.54" y="1012" as="targetPoint" />
          </mxGeometry>
        </mxCell>
        <mxCell id="Lz8n0oIxIYNL_WobhxWU-165" value="" style="endArrow=none;html=1;rounded=0;exitX=0;exitY=1;exitDx=0;exitDy=0;entryX=1;entryY=1;entryDx=0;entryDy=0;" edge="1" parent="1" source="Lz8n0oIxIYNL_WobhxWU-163" target="Lz8n0oIxIYNL_WobhxWU-162">
          <mxGeometry relative="1" as="geometry">
            <mxPoint x="1105.54" y="770" as="sourcePoint" />
            <mxPoint x="1066.54" y="840" as="targetPoint" />
          </mxGeometry>
        </mxCell>
        <mxCell id="Lz8n0oIxIYNL_WobhxWU-167" style="edgeStyle=none;rounded=0;orthogonalLoop=1;jettySize=auto;html=1;exitX=1;exitY=0.5;exitDx=0;exitDy=0;entryX=0;entryY=0.5;entryDx=0;entryDy=0;" edge="1" parent="1" source="Lz8n0oIxIYNL_WobhxWU-166" target="Lz8n0oIxIYNL_WobhxWU-162">
          <mxGeometry relative="1" as="geometry" />
        </mxCell>
        <mxCell id="Lz8n0oIxIYNL_WobhxWU-166" value="Es de Una" style="shape=rhombus;perimeter=rhombusPerimeter;whiteSpace=wrap;html=1;align=center;fillColor=#dae8fc;strokeColor=#6c8ebf;" vertex="1" parent="1">
          <mxGeometry x="678" y="860" width="120" height="60" as="geometry" />
        </mxCell>
        <mxCell id="Lz8n0oIxIYNL_WobhxWU-169" value="1" style="text;html=1;align=center;verticalAlign=middle;whiteSpace=wrap;rounded=0;" vertex="1" parent="1">
          <mxGeometry x="630" y="890" width="60" height="30" as="geometry" />
        </mxCell>
        <mxCell id="Lz8n0oIxIYNL_WobhxWU-170" value="1" style="text;html=1;align=center;verticalAlign=middle;whiteSpace=wrap;rounded=0;" vertex="1" parent="1">
          <mxGeometry x="790" y="855" width="60" height="30" as="geometry" />
        </mxCell>
        <mxCell id="Lz8n0oIxIYNL_WobhxWU-171" value="Relacionado&lt;div&gt;Con&lt;/div&gt;" style="shape=rhombus;perimeter=rhombusPerimeter;whiteSpace=wrap;html=1;align=center;fillColor=#dae8fc;strokeColor=#6c8ebf;" vertex="1" parent="1">
          <mxGeometry x="-130" y="470" width="120" height="60" as="geometry" />
        </mxCell>
        <mxCell id="Lz8n0oIxIYNL_WobhxWU-174" style="edgeStyle=none;rounded=0;orthogonalLoop=1;jettySize=auto;html=1;exitX=0.5;exitY=0;exitDx=0;exitDy=0;entryX=0.359;entryY=1.068;entryDx=0;entryDy=0;entryPerimeter=0;" edge="1" parent="1" source="Lz8n0oIxIYNL_WobhxWU-171" target="Lz8n0oIxIYNL_WobhxWU-1">
          <mxGeometry relative="1" as="geometry" />
        </mxCell>
        <mxCell id="Lz8n0oIxIYNL_WobhxWU-175" value="1" style="text;html=1;align=center;verticalAlign=middle;whiteSpace=wrap;rounded=0;" vertex="1" parent="1">
          <mxGeometry x="-60" y="450" width="60" height="35" as="geometry" />
        </mxCell>
        <mxCell id="Lz8n0oIxIYNL_WobhxWU-176" value="1" style="text;html=1;align=center;verticalAlign=middle;whiteSpace=wrap;rounded=0;" vertex="1" parent="1">
          <mxGeometry x="-70" y="520" width="60" height="35" as="geometry" />
        </mxCell>
        <mxCell id="Lz8n0oIxIYNL_WobhxWU-180" style="edgeStyle=none;rounded=0;orthogonalLoop=1;jettySize=auto;html=1;exitX=0.5;exitY=0;exitDx=0;exitDy=0;entryX=0.5;entryY=1;entryDx=0;entryDy=0;" edge="1" parent="1" source="Lz8n0oIxIYNL_WobhxWU-178" target="Lz8n0oIxIYNL_WobhxWU-57">
          <mxGeometry relative="1" as="geometry" />
        </mxCell>
        <mxCell id="Lz8n0oIxIYNL_WobhxWU-178" value="Creado Por" style="shape=rhombus;perimeter=rhombusPerimeter;whiteSpace=wrap;html=1;align=center;fillColor=#dae8fc;strokeColor=#6c8ebf;" vertex="1" parent="1">
          <mxGeometry x="720" y="700" width="120" height="60" as="geometry" />
        </mxCell>
        <mxCell id="Lz8n0oIxIYNL_WobhxWU-181" value="1" style="text;html=1;align=center;verticalAlign=middle;whiteSpace=wrap;rounded=0;" vertex="1" parent="1">
          <mxGeometry x="750" y="630" width="60" height="30" as="geometry" />
        </mxCell>
        <mxCell id="Lz8n0oIxIYNL_WobhxWU-182" value="n" style="text;html=1;align=center;verticalAlign=middle;whiteSpace=wrap;rounded=0;" vertex="1" parent="1">
          <mxGeometry x="800" y="760" width="60" height="30" as="geometry" />
        </mxCell>
      </root>
    </mxGraphModel>
  </diagram>
</mxfile>
